<mxfile host="app.diagrams.net" modified="2024-06-30T20:25:13.894Z" agent="Mozilla/5.0 (Windows NT 10.0; Win64; x64; rv:127.0) Gecko/20100101 Firefox/127.0" etag="Z9XN2D7M6E9WHoOvQxvV" version="24.6.4" type="github">
  <diagram name="Page-1" id="XGp-nELTrrfrIVu4wkue">
    <mxGraphModel dx="2895" dy="628" grid="1" gridSize="10" guides="1" tooltips="1" connect="1" arrows="1" fold="1" page="1" pageScale="1" pageWidth="850" pageHeight="1100" math="0" shadow="0">
      <root>
        <mxCell id="0" />
        <mxCell id="1" parent="0" />
        <mxCell id="s7CKVU12fJIXtigg7PJj-2" value="&lt;font style=&quot;font-size: 18px;&quot;&gt;user&lt;/font&gt;" style="rounded=0;whiteSpace=wrap;html=1;" parent="1" vertex="1">
          <mxGeometry x="-710" y="330" width="120" height="40" as="geometry" />
        </mxCell>
        <mxCell id="s7CKVU12fJIXtigg7PJj-3" value="&lt;u&gt;&lt;font style=&quot;font-size: 18px;&quot;&gt;user_id&lt;/font&gt;&lt;/u&gt;" style="ellipse;whiteSpace=wrap;html=1;" parent="1" vertex="1">
          <mxGeometry x="-850" y="260" width="90" height="40" as="geometry" />
        </mxCell>
        <mxCell id="s7CKVU12fJIXtigg7PJj-4" value="" style="endArrow=none;html=1;rounded=0;exitX=0;exitY=0;exitDx=0;exitDy=0;" parent="1" source="s7CKVU12fJIXtigg7PJj-2" target="s7CKVU12fJIXtigg7PJj-3" edge="1">
          <mxGeometry width="50" height="50" relative="1" as="geometry">
            <mxPoint x="-110" y="500" as="sourcePoint" />
            <mxPoint x="-60" y="450" as="targetPoint" />
          </mxGeometry>
        </mxCell>
        <mxCell id="s7CKVU12fJIXtigg7PJj-5" value="&lt;font style=&quot;font-size: 18px;&quot;&gt;elite&lt;/font&gt;" style="ellipse;whiteSpace=wrap;html=1;" parent="1" vertex="1">
          <mxGeometry x="-850" y="220" width="90" height="40" as="geometry" />
        </mxCell>
        <mxCell id="s7CKVU12fJIXtigg7PJj-6" value="" style="endArrow=none;html=1;rounded=0;exitX=0.25;exitY=0;exitDx=0;exitDy=0;" parent="1" source="s7CKVU12fJIXtigg7PJj-2" target="s7CKVU12fJIXtigg7PJj-5" edge="1">
          <mxGeometry width="50" height="50" relative="1" as="geometry">
            <mxPoint x="-770" y="500" as="sourcePoint" />
            <mxPoint x="-720" y="450" as="targetPoint" />
          </mxGeometry>
        </mxCell>
        <mxCell id="s7CKVU12fJIXtigg7PJj-7" value="&lt;font style=&quot;font-size: 14px;&quot;&gt;other attributes&lt;br&gt;&lt;/font&gt;" style="ellipse;whiteSpace=wrap;html=1;" parent="1" vertex="1">
          <mxGeometry x="-760" y="220" width="90" height="40" as="geometry" />
        </mxCell>
        <mxCell id="s7CKVU12fJIXtigg7PJj-8" value="" style="endArrow=none;html=1;rounded=0;exitX=0.5;exitY=0;exitDx=0;exitDy=0;" parent="1" source="s7CKVU12fJIXtigg7PJj-2" target="s7CKVU12fJIXtigg7PJj-7" edge="1">
          <mxGeometry width="50" height="50" relative="1" as="geometry">
            <mxPoint x="-770" y="500" as="sourcePoint" />
            <mxPoint x="-720" y="450" as="targetPoint" />
          </mxGeometry>
        </mxCell>
        <mxCell id="s7CKVU12fJIXtigg7PJj-14" style="edgeStyle=orthogonalEdgeStyle;rounded=0;orthogonalLoop=1;jettySize=auto;html=1;endArrow=none;endFill=0;" parent="1" source="s7CKVU12fJIXtigg7PJj-10" target="s7CKVU12fJIXtigg7PJj-2" edge="1">
          <mxGeometry relative="1" as="geometry">
            <mxPoint x="-630" y="390" as="targetPoint" />
            <Array as="points">
              <mxPoint x="-630" y="440" />
            </Array>
          </mxGeometry>
        </mxCell>
        <mxCell id="s7CKVU12fJIXtigg7PJj-10" value="&lt;font style=&quot;font-size: 16px;&quot;&gt;Has/is friends&lt;/font&gt;" style="rhombus;whiteSpace=wrap;html=1;" parent="1" vertex="1">
          <mxGeometry x="-730" y="400" width="80" height="80" as="geometry" />
        </mxCell>
        <mxCell id="s7CKVU12fJIXtigg7PJj-11" value="&lt;font style=&quot;font-size: 14px;&quot;&gt;useful_review&lt;br&gt;&lt;/font&gt;" style="ellipse;whiteSpace=wrap;html=1;" parent="1" vertex="1">
          <mxGeometry x="-670" y="220" width="90" height="40" as="geometry" />
        </mxCell>
        <mxCell id="s7CKVU12fJIXtigg7PJj-12" value="" style="endArrow=none;html=1;rounded=0;" parent="1" source="s7CKVU12fJIXtigg7PJj-2" target="s7CKVU12fJIXtigg7PJj-11" edge="1">
          <mxGeometry width="50" height="50" relative="1" as="geometry">
            <mxPoint x="-560" y="330" as="sourcePoint" />
            <mxPoint x="-630" y="450" as="targetPoint" />
          </mxGeometry>
        </mxCell>
        <mxCell id="s7CKVU12fJIXtigg7PJj-13" style="edgeStyle=orthogonalEdgeStyle;rounded=0;orthogonalLoop=1;jettySize=auto;html=1;exitX=0.5;exitY=0;exitDx=0;exitDy=0;endArrow=none;endFill=0;" parent="1" source="s7CKVU12fJIXtigg7PJj-10" target="s7CKVU12fJIXtigg7PJj-2" edge="1">
          <mxGeometry relative="1" as="geometry">
            <mxPoint x="-680" y="380" as="targetPoint" />
          </mxGeometry>
        </mxCell>
        <mxCell id="Xr0E54ZzPaXTqIcq0mG2-47" style="edgeStyle=orthogonalEdgeStyle;rounded=0;orthogonalLoop=1;jettySize=auto;html=1;exitX=0.5;exitY=1;exitDx=0;exitDy=0;entryX=0.5;entryY=0;entryDx=0;entryDy=0;endArrow=none;endFill=0;" parent="1" source="Xr0E54ZzPaXTqIcq0mG2-3" target="Xr0E54ZzPaXTqIcq0mG2-40" edge="1">
          <mxGeometry relative="1" as="geometry" />
        </mxCell>
        <mxCell id="Xr0E54ZzPaXTqIcq0mG2-3" value="&lt;font style=&quot;font-size: 18px;&quot;&gt;review&lt;/font&gt;" style="rounded=0;whiteSpace=wrap;html=1;" parent="1" vertex="1">
          <mxGeometry x="-1040" y="330" width="120" height="40" as="geometry" />
        </mxCell>
        <mxCell id="Xr0E54ZzPaXTqIcq0mG2-18" style="edgeStyle=orthogonalEdgeStyle;rounded=0;orthogonalLoop=1;jettySize=auto;html=1;entryX=1;entryY=0.5;entryDx=0;entryDy=0;endArrow=none;endFill=0;exitX=0.07;exitY=0.495;exitDx=0;exitDy=0;exitPerimeter=0;" parent="1" source="Xr0E54ZzPaXTqIcq0mG2-4" target="Xr0E54ZzPaXTqIcq0mG2-3" edge="1">
          <mxGeometry relative="1" as="geometry">
            <mxPoint x="-870" y="350" as="sourcePoint" />
          </mxGeometry>
        </mxCell>
        <mxCell id="Xr0E54ZzPaXTqIcq0mG2-4" value="&lt;div&gt;&lt;font style=&quot;font-size: 18px;&quot;&gt;Writes a&lt;br&gt;&lt;/font&gt;&lt;/div&gt;" style="rhombus;whiteSpace=wrap;html=1;" parent="1" vertex="1">
          <mxGeometry x="-840" y="310" width="80" height="80" as="geometry" />
        </mxCell>
        <mxCell id="Xr0E54ZzPaXTqIcq0mG2-5" value="&lt;u&gt;&lt;font style=&quot;font-size: 18px;&quot;&gt;review_id&lt;/font&gt;&lt;/u&gt;" style="ellipse;whiteSpace=wrap;html=1;" parent="1" vertex="1">
          <mxGeometry x="-1050" y="260" width="90" height="40" as="geometry" />
        </mxCell>
        <mxCell id="Xr0E54ZzPaXTqIcq0mG2-6" value="" style="endArrow=none;html=1;rounded=0;" parent="1" source="Xr0E54ZzPaXTqIcq0mG2-3" target="Xr0E54ZzPaXTqIcq0mG2-5" edge="1">
          <mxGeometry width="50" height="50" relative="1" as="geometry">
            <mxPoint x="-800" y="500" as="sourcePoint" />
            <mxPoint x="-750" y="450" as="targetPoint" />
          </mxGeometry>
        </mxCell>
        <mxCell id="Xr0E54ZzPaXTqIcq0mG2-7" value="&lt;font style=&quot;font-size: 18px;&quot;&gt;user_id&lt;/font&gt;" style="ellipse;whiteSpace=wrap;html=1;" parent="1" vertex="1">
          <mxGeometry x="-970" y="230" width="90" height="40" as="geometry" />
        </mxCell>
        <mxCell id="Xr0E54ZzPaXTqIcq0mG2-8" value="" style="endArrow=none;html=1;rounded=0;" parent="1" source="Xr0E54ZzPaXTqIcq0mG2-3" target="Xr0E54ZzPaXTqIcq0mG2-7" edge="1">
          <mxGeometry width="50" height="50" relative="1" as="geometry">
            <mxPoint x="-800" y="500" as="sourcePoint" />
            <mxPoint x="-750" y="450" as="targetPoint" />
          </mxGeometry>
        </mxCell>
        <mxCell id="Xr0E54ZzPaXTqIcq0mG2-9" value="&lt;font size=&quot;1&quot;&gt;&lt;span style=&quot;font-size: 15px;&quot;&gt;business_id&lt;/span&gt;&lt;/font&gt;" style="ellipse;whiteSpace=wrap;html=1;" parent="1" vertex="1">
          <mxGeometry x="-960" y="270" width="90" height="40" as="geometry" />
        </mxCell>
        <mxCell id="Xr0E54ZzPaXTqIcq0mG2-10" value="" style="endArrow=none;html=1;rounded=0;" parent="1" source="Xr0E54ZzPaXTqIcq0mG2-3" target="Xr0E54ZzPaXTqIcq0mG2-9" edge="1">
          <mxGeometry width="50" height="50" relative="1" as="geometry">
            <mxPoint x="-800" y="500" as="sourcePoint" />
            <mxPoint x="-750" y="450" as="targetPoint" />
          </mxGeometry>
        </mxCell>
        <mxCell id="Xr0E54ZzPaXTqIcq0mG2-11" value="&lt;font style=&quot;font-size: 18px;&quot;&gt;text&lt;/font&gt;" style="ellipse;whiteSpace=wrap;html=1;" parent="1" vertex="1">
          <mxGeometry x="-1190" y="260" width="90" height="40" as="geometry" />
        </mxCell>
        <mxCell id="Xr0E54ZzPaXTqIcq0mG2-12" value="" style="endArrow=none;html=1;rounded=0;" parent="1" source="Xr0E54ZzPaXTqIcq0mG2-11" target="Xr0E54ZzPaXTqIcq0mG2-3" edge="1">
          <mxGeometry width="50" height="50" relative="1" as="geometry">
            <mxPoint x="-850" y="500" as="sourcePoint" />
            <mxPoint x="-980" y="390" as="targetPoint" />
          </mxGeometry>
        </mxCell>
        <mxCell id="Xr0E54ZzPaXTqIcq0mG2-16" style="edgeStyle=orthogonalEdgeStyle;rounded=0;orthogonalLoop=1;jettySize=auto;html=1;exitX=0;exitY=0.5;exitDx=0;exitDy=0;shape=link;" parent="1" source="s7CKVU12fJIXtigg7PJj-2" edge="1">
          <mxGeometry relative="1" as="geometry">
            <mxPoint x="-750" y="351" as="targetPoint" />
            <Array as="points">
              <mxPoint x="-750" y="350" />
            </Array>
          </mxGeometry>
        </mxCell>
        <mxCell id="Xr0E54ZzPaXTqIcq0mG2-17" style="edgeStyle=orthogonalEdgeStyle;rounded=0;orthogonalLoop=1;jettySize=auto;html=1;endArrow=classic;endFill=1;exitX=1.098;exitY=0.502;exitDx=0;exitDy=0;exitPerimeter=0;" parent="1" source="Xr0E54ZzPaXTqIcq0mG2-4" edge="1">
          <mxGeometry relative="1" as="geometry">
            <mxPoint x="-760" y="349.71" as="targetPoint" />
            <mxPoint x="-700" y="349.71" as="sourcePoint" />
            <Array as="points">
              <mxPoint x="-750" y="350" />
            </Array>
          </mxGeometry>
        </mxCell>
        <mxCell id="Xr0E54ZzPaXTqIcq0mG2-19" value="&lt;font style=&quot;font-size: 18px;&quot;&gt;stars&lt;/font&gt;" style="ellipse;whiteSpace=wrap;html=1;" parent="1" vertex="1">
          <mxGeometry x="-1190" y="300" width="90" height="40" as="geometry" />
        </mxCell>
        <mxCell id="Xr0E54ZzPaXTqIcq0mG2-21" value="" style="endArrow=none;html=1;rounded=0;entryX=1;entryY=0.5;entryDx=0;entryDy=0;" parent="1" source="Xr0E54ZzPaXTqIcq0mG2-3" target="Xr0E54ZzPaXTqIcq0mG2-19" edge="1">
          <mxGeometry width="50" height="50" relative="1" as="geometry">
            <mxPoint x="-970" y="410" as="sourcePoint" />
            <mxPoint x="-920" y="360" as="targetPoint" />
          </mxGeometry>
        </mxCell>
        <mxCell id="Xr0E54ZzPaXTqIcq0mG2-22" value="&lt;font style=&quot;font-size: 18px;&quot;&gt;useful&lt;/font&gt;" style="ellipse;whiteSpace=wrap;html=1;" parent="1" vertex="1">
          <mxGeometry x="-1190" y="340" width="90" height="40" as="geometry" />
        </mxCell>
        <mxCell id="Xr0E54ZzPaXTqIcq0mG2-23" value="" style="endArrow=none;html=1;rounded=0;entryX=1;entryY=0.5;entryDx=0;entryDy=0;" parent="1" source="Xr0E54ZzPaXTqIcq0mG2-3" target="Xr0E54ZzPaXTqIcq0mG2-22" edge="1">
          <mxGeometry width="50" height="50" relative="1" as="geometry">
            <mxPoint x="-1023" y="340" as="sourcePoint" />
            <mxPoint x="-1050" y="330" as="targetPoint" />
          </mxGeometry>
        </mxCell>
        <mxCell id="Xr0E54ZzPaXTqIcq0mG2-24" style="edgeStyle=orthogonalEdgeStyle;rounded=0;orthogonalLoop=1;jettySize=auto;html=1;exitX=0.5;exitY=1;exitDx=0;exitDy=0;shape=link;" parent="1" source="Xr0E54ZzPaXTqIcq0mG2-26" target="Xr0E54ZzPaXTqIcq0mG2-37" edge="1">
          <mxGeometry relative="1" as="geometry" />
        </mxCell>
        <mxCell id="Xr0E54ZzPaXTqIcq0mG2-26" value="&lt;font style=&quot;font-size: 18px;&quot;&gt;Business&lt;/font&gt;" style="rounded=0;whiteSpace=wrap;html=1;" parent="1" vertex="1">
          <mxGeometry x="-1040" y="560" width="120" height="40" as="geometry" />
        </mxCell>
        <mxCell id="Xr0E54ZzPaXTqIcq0mG2-27" value="&lt;font size=&quot;1&quot;&gt;&lt;u style=&quot;font-size: 15px;&quot;&gt;business_id&lt;/u&gt;&lt;/font&gt;" style="ellipse;whiteSpace=wrap;html=1;" parent="1" vertex="1">
          <mxGeometry x="-910" y="730" width="90" height="40" as="geometry" />
        </mxCell>
        <mxCell id="Xr0E54ZzPaXTqIcq0mG2-28" value="" style="endArrow=none;html=1;rounded=0;exitX=1;exitY=1;exitDx=0;exitDy=0;" parent="1" source="Xr0E54ZzPaXTqIcq0mG2-26" target="Xr0E54ZzPaXTqIcq0mG2-27" edge="1">
          <mxGeometry width="50" height="50" relative="1" as="geometry">
            <mxPoint x="-830" y="610" as="sourcePoint" />
            <mxPoint x="-780" y="560" as="targetPoint" />
          </mxGeometry>
        </mxCell>
        <mxCell id="Xr0E54ZzPaXTqIcq0mG2-29" value="&lt;font style=&quot;font-size: 18px;&quot;&gt;name&lt;/font&gt;" style="ellipse;whiteSpace=wrap;html=1;" parent="1" vertex="1">
          <mxGeometry x="-880" y="690" width="90" height="40" as="geometry" />
        </mxCell>
        <mxCell id="Xr0E54ZzPaXTqIcq0mG2-30" value="" style="endArrow=none;html=1;rounded=0;entryX=1.005;entryY=0.897;entryDx=0;entryDy=0;entryPerimeter=0;" parent="1" source="Xr0E54ZzPaXTqIcq0mG2-29" target="Xr0E54ZzPaXTqIcq0mG2-26" edge="1">
          <mxGeometry width="50" height="50" relative="1" as="geometry">
            <mxPoint x="-830" y="610" as="sourcePoint" />
            <mxPoint x="-780" y="560" as="targetPoint" />
          </mxGeometry>
        </mxCell>
        <mxCell id="Xr0E54ZzPaXTqIcq0mG2-31" value="&lt;font style=&quot;font-size: 14px;&quot;&gt;address&lt;br&gt;&lt;/font&gt;" style="ellipse;whiteSpace=wrap;html=1;" parent="1" vertex="1">
          <mxGeometry x="-860" y="650" width="90" height="40" as="geometry" />
        </mxCell>
        <mxCell id="Xr0E54ZzPaXTqIcq0mG2-32" value="" style="endArrow=none;html=1;rounded=0;exitX=1;exitY=0.75;exitDx=0;exitDy=0;" parent="1" source="Xr0E54ZzPaXTqIcq0mG2-26" target="Xr0E54ZzPaXTqIcq0mG2-31" edge="1">
          <mxGeometry width="50" height="50" relative="1" as="geometry">
            <mxPoint x="-830" y="610" as="sourcePoint" />
            <mxPoint x="-780" y="560" as="targetPoint" />
          </mxGeometry>
        </mxCell>
        <mxCell id="Xr0E54ZzPaXTqIcq0mG2-33" value="&lt;font style=&quot;font-size: 18px;&quot;&gt;city&lt;/font&gt;" style="ellipse;whiteSpace=wrap;html=1;" parent="1" vertex="1">
          <mxGeometry x="-850" y="610" width="90" height="40" as="geometry" />
        </mxCell>
        <mxCell id="Xr0E54ZzPaXTqIcq0mG2-34" value="" style="endArrow=none;html=1;rounded=0;exitX=1.005;exitY=0.621;exitDx=0;exitDy=0;exitPerimeter=0;" parent="1" source="Xr0E54ZzPaXTqIcq0mG2-26" target="Xr0E54ZzPaXTqIcq0mG2-33" edge="1">
          <mxGeometry width="50" height="50" relative="1" as="geometry">
            <mxPoint x="-830" y="610" as="sourcePoint" />
            <mxPoint x="-780" y="560" as="targetPoint" />
          </mxGeometry>
        </mxCell>
        <mxCell id="Xr0E54ZzPaXTqIcq0mG2-35" style="edgeStyle=orthogonalEdgeStyle;rounded=0;orthogonalLoop=1;jettySize=auto;html=1;exitX=0.5;exitY=0;exitDx=0;exitDy=0;shape=link;" parent="1" source="Xr0E54ZzPaXTqIcq0mG2-36" target="Xr0E54ZzPaXTqIcq0mG2-37" edge="1">
          <mxGeometry relative="1" as="geometry" />
        </mxCell>
        <mxCell id="Xr0E54ZzPaXTqIcq0mG2-36" value="&lt;font style=&quot;font-size: 18px;&quot;&gt;checkin&lt;/font&gt;" style="rounded=0;whiteSpace=wrap;html=1;" parent="1" vertex="1">
          <mxGeometry x="-1040" y="700" width="120" height="40" as="geometry" />
        </mxCell>
        <mxCell id="Xr0E54ZzPaXTqIcq0mG2-37" value="&lt;div&gt;&lt;font style=&quot;font-size: 18px;&quot;&gt;Has&lt;/font&gt;&lt;/div&gt;&lt;div&gt;&lt;font style=&quot;font-size: 18px;&quot;&gt;a&lt;br&gt;&lt;/font&gt;&lt;/div&gt;" style="rhombus;whiteSpace=wrap;html=1;" parent="1" vertex="1">
          <mxGeometry x="-1010" y="620" width="60" height="60" as="geometry" />
        </mxCell>
        <mxCell id="Xr0E54ZzPaXTqIcq0mG2-46" style="edgeStyle=orthogonalEdgeStyle;rounded=0;orthogonalLoop=1;jettySize=auto;html=1;exitX=0.5;exitY=1;exitDx=0;exitDy=0;shape=link;" parent="1" source="Xr0E54ZzPaXTqIcq0mG2-40" edge="1">
          <mxGeometry relative="1" as="geometry">
            <mxPoint x="-980.0344827586207" y="560" as="targetPoint" />
          </mxGeometry>
        </mxCell>
        <mxCell id="Xr0E54ZzPaXTqIcq0mG2-40" value="&lt;div&gt;&lt;font style=&quot;font-size: 18px;&quot;&gt;Has&lt;/font&gt;&lt;/div&gt;&lt;div&gt;&lt;font style=&quot;font-size: 18px;&quot;&gt;a&lt;br&gt;&lt;/font&gt;&lt;/div&gt;" style="rhombus;whiteSpace=wrap;html=1;" parent="1" vertex="1">
          <mxGeometry x="-1020" y="420" width="80" height="80" as="geometry" />
        </mxCell>
        <mxCell id="Xr0E54ZzPaXTqIcq0mG2-41" value="checkin_date" style="ellipse;whiteSpace=wrap;html=1;" parent="1" vertex="1">
          <mxGeometry x="-1080" y="750" width="90" height="40" as="geometry" />
        </mxCell>
        <mxCell id="Xr0E54ZzPaXTqIcq0mG2-42" value="" style="endArrow=none;html=1;rounded=0;entryX=0;entryY=1;entryDx=0;entryDy=0;" parent="1" source="Xr0E54ZzPaXTqIcq0mG2-41" target="Xr0E54ZzPaXTqIcq0mG2-36" edge="1">
          <mxGeometry width="50" height="50" relative="1" as="geometry">
            <mxPoint x="-1130" y="610" as="sourcePoint" />
            <mxPoint x="-1080" y="560" as="targetPoint" />
          </mxGeometry>
        </mxCell>
        <mxCell id="Xr0E54ZzPaXTqIcq0mG2-44" style="edgeStyle=orthogonalEdgeStyle;rounded=0;orthogonalLoop=1;jettySize=auto;html=1;endArrow=classic;endFill=1;" parent="1" edge="1">
          <mxGeometry relative="1" as="geometry">
            <mxPoint x="-980.31" y="560" as="targetPoint" />
            <mxPoint x="-980.31" y="550" as="sourcePoint" />
            <Array as="points">
              <mxPoint x="-980.25" y="540" />
              <mxPoint x="-980.25" y="540" />
            </Array>
          </mxGeometry>
        </mxCell>
        <mxCell id="Xr0E54ZzPaXTqIcq0mG2-48" value="&lt;font style=&quot;font-size: 18px;&quot;&gt;state&lt;/font&gt;" style="ellipse;whiteSpace=wrap;html=1;" parent="1" vertex="1">
          <mxGeometry x="-850" y="570" width="90" height="40" as="geometry" />
        </mxCell>
        <mxCell id="Xr0E54ZzPaXTqIcq0mG2-49" value="" style="endArrow=none;html=1;rounded=0;exitX=1;exitY=0.5;exitDx=0;exitDy=0;" parent="1" source="Xr0E54ZzPaXTqIcq0mG2-26" target="Xr0E54ZzPaXTqIcq0mG2-48" edge="1">
          <mxGeometry width="50" height="50" relative="1" as="geometry">
            <mxPoint x="-920" y="560" as="sourcePoint" />
            <mxPoint x="-780" y="520" as="targetPoint" />
          </mxGeometry>
        </mxCell>
        <mxCell id="Xr0E54ZzPaXTqIcq0mG2-50" value="&lt;font style=&quot;font-size: 15px;&quot;&gt;postal_code&lt;/font&gt;" style="ellipse;whiteSpace=wrap;html=1;" parent="1" vertex="1">
          <mxGeometry x="-850" y="530" width="90" height="40" as="geometry" />
        </mxCell>
        <mxCell id="Xr0E54ZzPaXTqIcq0mG2-51" value="" style="endArrow=none;html=1;rounded=0;exitX=1;exitY=0.25;exitDx=0;exitDy=0;" parent="1" source="Xr0E54ZzPaXTqIcq0mG2-26" target="Xr0E54ZzPaXTqIcq0mG2-50" edge="1">
          <mxGeometry width="50" height="50" relative="1" as="geometry">
            <mxPoint x="-920" y="540" as="sourcePoint" />
            <mxPoint x="-780" y="480" as="targetPoint" />
          </mxGeometry>
        </mxCell>
        <mxCell id="Xr0E54ZzPaXTqIcq0mG2-52" value="&lt;font style=&quot;font-size: 18px;&quot;&gt;stars&lt;/font&gt;" style="ellipse;whiteSpace=wrap;html=1;" parent="1" vertex="1">
          <mxGeometry x="-850" y="490" width="90" height="40" as="geometry" />
        </mxCell>
        <mxCell id="Xr0E54ZzPaXTqIcq0mG2-53" value="" style="endArrow=none;html=1;rounded=0;" parent="1" source="Xr0E54ZzPaXTqIcq0mG2-26" target="Xr0E54ZzPaXTqIcq0mG2-52" edge="1">
          <mxGeometry width="50" height="50" relative="1" as="geometry">
            <mxPoint x="-920" y="500" as="sourcePoint" />
            <mxPoint x="-780" y="440" as="targetPoint" />
          </mxGeometry>
        </mxCell>
        <mxCell id="Xr0E54ZzPaXTqIcq0mG2-54" value="num_checkins" style="ellipse;whiteSpace=wrap;html=1;" parent="1" vertex="1">
          <mxGeometry x="-910" y="460" width="90" height="40" as="geometry" />
        </mxCell>
        <mxCell id="Xr0E54ZzPaXTqIcq0mG2-55" value="" style="endArrow=none;html=1;rounded=0;exitX=0.804;exitY=0.017;exitDx=0;exitDy=0;exitPerimeter=0;" parent="1" source="Xr0E54ZzPaXTqIcq0mG2-26" target="Xr0E54ZzPaXTqIcq0mG2-54" edge="1">
          <mxGeometry width="50" height="50" relative="1" as="geometry">
            <mxPoint x="-920" y="570" as="sourcePoint" />
            <mxPoint x="-828" y="533" as="targetPoint" />
          </mxGeometry>
        </mxCell>
        <mxCell id="Xr0E54ZzPaXTqIcq0mG2-56" value="review_raing" style="ellipse;whiteSpace=wrap;html=1;" parent="1" vertex="1">
          <mxGeometry x="-1100" y="620" width="90" height="40" as="geometry" />
        </mxCell>
        <mxCell id="Xr0E54ZzPaXTqIcq0mG2-57" value="" style="endArrow=none;html=1;rounded=0;" parent="1" source="Xr0E54ZzPaXTqIcq0mG2-26" target="Xr0E54ZzPaXTqIcq0mG2-56" edge="1">
          <mxGeometry width="50" height="50" relative="1" as="geometry">
            <mxPoint x="-1164" y="730" as="sourcePoint" />
            <mxPoint x="-1048" y="702" as="targetPoint" />
          </mxGeometry>
        </mxCell>
        <mxCell id="Xr0E54ZzPaXTqIcq0mG2-78" style="edgeStyle=orthogonalEdgeStyle;rounded=0;orthogonalLoop=1;jettySize=auto;html=1;exitX=0.5;exitY=1;exitDx=0;exitDy=0;entryX=0.5;entryY=0;entryDx=0;entryDy=0;shape=link;" parent="1" source="Xr0E54ZzPaXTqIcq0mG2-69" target="Xr0E54ZzPaXTqIcq0mG2-71" edge="1">
          <mxGeometry relative="1" as="geometry" />
        </mxCell>
        <mxCell id="Xr0E54ZzPaXTqIcq0mG2-69" value="&lt;font style=&quot;font-size: 16px;&quot;&gt;categories&lt;/font&gt;" style="rounded=0;whiteSpace=wrap;html=1;" parent="1" vertex="1">
          <mxGeometry x="-1181" y="440" width="120" height="40" as="geometry" />
        </mxCell>
        <mxCell id="Xr0E54ZzPaXTqIcq0mG2-73" style="edgeStyle=orthogonalEdgeStyle;rounded=0;orthogonalLoop=1;jettySize=auto;html=1;entryX=0;entryY=0.25;entryDx=0;entryDy=0;endArrow=none;endFill=0;" parent="1" source="Xr0E54ZzPaXTqIcq0mG2-71" target="Xr0E54ZzPaXTqIcq0mG2-26" edge="1">
          <mxGeometry relative="1" as="geometry" />
        </mxCell>
        <mxCell id="Xr0E54ZzPaXTqIcq0mG2-71" value="&lt;div&gt;&lt;font style=&quot;font-size: 18px;&quot;&gt;Has&lt;/font&gt;&lt;/div&gt;" style="rhombus;whiteSpace=wrap;html=1;" parent="1" vertex="1">
          <mxGeometry x="-1145" y="510" width="50" height="60" as="geometry" />
        </mxCell>
        <mxCell id="Xr0E54ZzPaXTqIcq0mG2-79" value="" style="endArrow=classic;html=1;rounded=0;" parent="1" edge="1">
          <mxGeometry width="50" height="50" relative="1" as="geometry">
            <mxPoint x="-1120.25" y="490" as="sourcePoint" />
            <mxPoint x="-1120.42" y="510" as="targetPoint" />
          </mxGeometry>
        </mxCell>
        <mxCell id="ypRIizv_7h_KY6giBTn6-1" value="category" style="ellipse;whiteSpace=wrap;html=1;" vertex="1" parent="1">
          <mxGeometry x="-1290" y="400" width="90" height="40" as="geometry" />
        </mxCell>
        <mxCell id="ypRIizv_7h_KY6giBTn6-2" value="" style="endArrow=none;html=1;rounded=0;" edge="1" parent="1" source="ypRIizv_7h_KY6giBTn6-1">
          <mxGeometry width="50" height="50" relative="1" as="geometry">
            <mxPoint x="-1000" y="610" as="sourcePoint" />
            <mxPoint x="-1177" y="440" as="targetPoint" />
          </mxGeometry>
        </mxCell>
        <mxCell id="ypRIizv_7h_KY6giBTn6-4" value="" style="endArrow=none;dashed=1;html=1;rounded=0;" edge="1" parent="1">
          <mxGeometry width="50" height="50" relative="1" as="geometry">
            <mxPoint x="-1220" y="430" as="sourcePoint" />
            <mxPoint x="-1270" y="430" as="targetPoint" />
          </mxGeometry>
        </mxCell>
        <mxCell id="ypRIizv_7h_KY6giBTn6-5" value="" style="rounded=0;whiteSpace=wrap;html=1;fillColor=none;" vertex="1" parent="1">
          <mxGeometry x="-1190" y="430" width="140" height="60" as="geometry" />
        </mxCell>
      </root>
    </mxGraphModel>
  </diagram>
</mxfile>
